<mxfile host="app.diagrams.net" modified="2024-01-04T10:42:35.846Z" agent="Mozilla/5.0 (Windows NT 10.0; Win64; x64) AppleWebKit/537.36 (KHTML, like Gecko) Chrome/120.0.0.0 Safari/537.36" etag="fs59dzKcF_1GHi_X-yLU" version="22.1.16" type="device">
  <diagram name="Page-1" id="kr9EVviITW9TBXFejRC4">
    <mxGraphModel dx="1664" dy="829" grid="1" gridSize="10" guides="1" tooltips="1" connect="1" arrows="1" fold="1" page="1" pageScale="1" pageWidth="827" pageHeight="1169" math="0" shadow="0">
      <root>
        <mxCell id="0" />
        <mxCell id="1" parent="0" />
        <mxCell id="9rN-HTs9b1Wg2l5YEKM0-1" value="Login" style="rounded=0;whiteSpace=wrap;html=1;" parent="1" vertex="1">
          <mxGeometry x="40" y="40" width="80" height="40" as="geometry" />
        </mxCell>
        <mxCell id="lOhiPZA9xh6wjAjMldB4-1" value="Registration" style="rounded=0;whiteSpace=wrap;html=1;" parent="1" vertex="1">
          <mxGeometry x="420" y="40" width="80" height="40" as="geometry" />
        </mxCell>
        <mxCell id="lOhiPZA9xh6wjAjMldB4-13" value="" style="line;strokeWidth=1;html=1;" parent="1" vertex="1">
          <mxGeometry x="120" y="55" width="120" height="10" as="geometry" />
        </mxCell>
        <mxCell id="lOhiPZA9xh6wjAjMldB4-14" value="refers" style="rhombus;whiteSpace=wrap;html=1;" parent="1" vertex="1">
          <mxGeometry x="240" y="30" width="60" height="60" as="geometry" />
        </mxCell>
        <mxCell id="lOhiPZA9xh6wjAjMldB4-15" value="" style="line;strokeWidth=1;html=1;" parent="1" vertex="1">
          <mxGeometry x="300" y="55" width="120" height="10" as="geometry" />
        </mxCell>
        <mxCell id="lOhiPZA9xh6wjAjMldB4-16" value="" style="line;strokeWidth=1;direction=south;html=1;spacingLeft=0;spacingBottom=0;spacingRight=0;perimeterSpacing=0;" parent="1" vertex="1">
          <mxGeometry x="35" y="80" width="10" height="100" as="geometry" />
        </mxCell>
        <mxCell id="lOhiPZA9xh6wjAjMldB4-17" value="" style="line;strokeWidth=1;direction=south;html=1;spacingLeft=0;spacingBottom=0;spacingRight=0;perimeterSpacing=0;" parent="1" vertex="1">
          <mxGeometry x="414" y="80" width="12" height="280" as="geometry" />
        </mxCell>
        <mxCell id="lOhiPZA9xh6wjAjMldB4-18" value="" style="line;strokeWidth=0.5;html=1;labelBackgroundColor=default;strokeColor=default;align=center;verticalAlign=top;spacingLeft=0;spacingRight=0;spacingTop=8;spacingBottom=0;fontFamily=Helvetica;fontSize=12;fontColor=default;fillColor=default;" parent="1" vertex="1">
          <mxGeometry x="40" y="110" width="40" height="20" as="geometry" />
        </mxCell>
        <mxCell id="lOhiPZA9xh6wjAjMldB4-20" value="" style="line;strokeWidth=0.5;html=1;labelBackgroundColor=default;strokeColor=default;align=center;verticalAlign=top;spacingLeft=0;spacingRight=0;spacingTop=8;spacingBottom=0;fontFamily=Helvetica;fontSize=12;fontColor=default;fillColor=default;" parent="1" vertex="1">
          <mxGeometry x="40" y="170" width="40" height="20" as="geometry" />
        </mxCell>
        <mxCell id="lOhiPZA9xh6wjAjMldB4-21" value="" style="line;strokeWidth=0.5;html=1;labelBackgroundColor=default;strokeColor=default;align=center;verticalAlign=top;spacingLeft=0;spacingRight=0;spacingTop=8;spacingBottom=0;fontFamily=Helvetica;fontSize=12;fontColor=default;fillColor=default;" parent="1" vertex="1">
          <mxGeometry x="420" y="110" width="40" height="20" as="geometry" />
        </mxCell>
        <mxCell id="lOhiPZA9xh6wjAjMldB4-23" value="" style="line;strokeWidth=0.5;html=1;labelBackgroundColor=default;strokeColor=default;align=center;verticalAlign=top;spacingLeft=0;spacingRight=0;spacingTop=8;spacingBottom=0;fontFamily=Helvetica;fontSize=12;fontColor=default;fillColor=default;" parent="1" vertex="1">
          <mxGeometry x="420" y="170" width="40" height="20" as="geometry" />
        </mxCell>
        <mxCell id="lOhiPZA9xh6wjAjMldB4-24" value="" style="line;strokeWidth=0.5;html=1;labelBackgroundColor=default;strokeColor=default;align=center;verticalAlign=top;spacingLeft=0;spacingRight=0;spacingTop=8;spacingBottom=0;fontFamily=Helvetica;fontSize=12;fontColor=default;fillColor=default;" parent="1" vertex="1">
          <mxGeometry x="420" y="290" width="40" height="20" as="geometry" />
        </mxCell>
        <mxCell id="lOhiPZA9xh6wjAjMldB4-25" value="" style="line;strokeWidth=0.5;html=1;labelBackgroundColor=default;strokeColor=default;align=center;verticalAlign=top;spacingLeft=0;spacingRight=0;spacingTop=8;spacingBottom=0;fontFamily=Helvetica;fontSize=12;fontColor=default;fillColor=default;" parent="1" vertex="1">
          <mxGeometry x="420" y="230" width="40" height="20" as="geometry" />
        </mxCell>
        <mxCell id="lOhiPZA9xh6wjAjMldB4-26" value="" style="line;strokeWidth=0.5;html=1;labelBackgroundColor=default;strokeColor=default;align=center;verticalAlign=top;spacingLeft=0;spacingRight=0;spacingTop=8;spacingBottom=0;fontFamily=Helvetica;fontSize=12;fontColor=default;fillColor=default;" parent="1" vertex="1">
          <mxGeometry x="420" y="350" width="40" height="20" as="geometry" />
        </mxCell>
        <mxCell id="lOhiPZA9xh6wjAjMldB4-30" value="Email" style="ellipse;whiteSpace=wrap;html=1;labelBackgroundColor=default;strokeColor=default;strokeWidth=1;align=center;verticalAlign=top;spacingLeft=0;spacingRight=0;spacingTop=8;spacingBottom=0;fontFamily=Helvetica;fontSize=12;fontColor=default;fillColor=default;" parent="1" vertex="1">
          <mxGeometry x="80" y="100" width="60" height="40" as="geometry" />
        </mxCell>
        <mxCell id="lOhiPZA9xh6wjAjMldB4-32" value="Password" style="ellipse;whiteSpace=wrap;html=1;labelBackgroundColor=default;strokeColor=default;strokeWidth=1;align=center;verticalAlign=top;spacingLeft=0;spacingRight=0;spacingTop=8;spacingBottom=0;fontFamily=Helvetica;fontSize=12;fontColor=default;fillColor=default;" parent="1" vertex="1">
          <mxGeometry x="80" y="160" width="60" height="40" as="geometry" />
        </mxCell>
        <mxCell id="lOhiPZA9xh6wjAjMldB4-33" value="&lt;font style=&quot;font-size: 10px;&quot;&gt;First Name&lt;/font&gt;" style="ellipse;whiteSpace=wrap;html=1;labelBackgroundColor=default;strokeColor=default;strokeWidth=1;align=center;verticalAlign=top;spacingLeft=0;spacingRight=0;spacingTop=8;spacingBottom=0;fontFamily=Helvetica;fontSize=12;fontColor=default;fillColor=default;" parent="1" vertex="1">
          <mxGeometry x="460" y="100" width="60" height="40" as="geometry" />
        </mxCell>
        <mxCell id="lOhiPZA9xh6wjAjMldB4-34" value="&lt;font style=&quot;font-size: 10px;&quot;&gt;Last Name&lt;/font&gt;" style="ellipse;whiteSpace=wrap;html=1;labelBackgroundColor=default;strokeColor=default;strokeWidth=1;align=center;verticalAlign=top;spacingLeft=0;spacingRight=0;spacingTop=8;spacingBottom=0;fontFamily=Helvetica;fontSize=12;fontColor=default;fillColor=default;" parent="1" vertex="1">
          <mxGeometry x="460" y="160" width="60" height="40" as="geometry" />
        </mxCell>
        <mxCell id="lOhiPZA9xh6wjAjMldB4-35" value="Email" style="ellipse;whiteSpace=wrap;html=1;labelBackgroundColor=default;strokeColor=default;strokeWidth=1;align=center;verticalAlign=top;spacingLeft=0;spacingRight=0;spacingTop=8;spacingBottom=0;fontFamily=Helvetica;fontSize=12;fontColor=default;fillColor=default;" parent="1" vertex="1">
          <mxGeometry x="460" y="340" width="60" height="40" as="geometry" />
        </mxCell>
        <mxCell id="lOhiPZA9xh6wjAjMldB4-36" value="Password" style="ellipse;whiteSpace=wrap;html=1;labelBackgroundColor=default;strokeColor=default;strokeWidth=1;align=center;verticalAlign=top;spacingLeft=0;spacingRight=0;spacingTop=8;spacingBottom=0;fontFamily=Helvetica;fontSize=12;fontColor=default;fillColor=default;" parent="1" vertex="1">
          <mxGeometry x="460" y="280" width="60" height="40" as="geometry" />
        </mxCell>
        <mxCell id="lOhiPZA9xh6wjAjMldB4-37" value="Email" style="ellipse;whiteSpace=wrap;html=1;labelBackgroundColor=default;strokeColor=default;strokeWidth=1;align=center;verticalAlign=top;spacingLeft=0;spacingRight=0;spacingTop=8;spacingBottom=0;fontFamily=Helvetica;fontSize=12;fontColor=default;fillColor=default;" parent="1" vertex="1">
          <mxGeometry x="460" y="220" width="60" height="40" as="geometry" />
        </mxCell>
        <mxCell id="lOhiPZA9xh6wjAjMldB4-38" value="1" style="text;html=1;strokeColor=none;fillColor=none;align=center;verticalAlign=middle;whiteSpace=wrap;rounded=0;fontSize=12;fontFamily=Helvetica;fontColor=default;" parent="1" vertex="1">
          <mxGeometry x="120" y="45" width="20" height="10" as="geometry" />
        </mxCell>
        <mxCell id="lOhiPZA9xh6wjAjMldB4-39" value="1" style="text;html=1;strokeColor=none;fillColor=none;align=center;verticalAlign=middle;whiteSpace=wrap;rounded=0;fontSize=12;fontFamily=Helvetica;fontColor=default;" parent="1" vertex="1">
          <mxGeometry x="400" y="45" width="20" height="10" as="geometry" />
        </mxCell>
        <mxCell id="lOhiPZA9xh6wjAjMldB4-41" value="Employee" style="rounded=0;whiteSpace=wrap;html=1;" parent="1" vertex="1">
          <mxGeometry x="40" y="440" width="80" height="40" as="geometry" />
        </mxCell>
        <mxCell id="lOhiPZA9xh6wjAjMldB4-42" value="" style="line;strokeWidth=1;direction=south;html=1;spacingLeft=0;spacingBottom=0;spacingRight=0;perimeterSpacing=0;" parent="1" vertex="1">
          <mxGeometry x="35" y="480" width="10" height="220" as="geometry" />
        </mxCell>
        <mxCell id="lOhiPZA9xh6wjAjMldB4-43" value="" style="line;strokeWidth=0.5;html=1;labelBackgroundColor=default;strokeColor=default;align=center;verticalAlign=top;spacingLeft=0;spacingRight=0;spacingTop=8;spacingBottom=0;fontFamily=Helvetica;fontSize=12;fontColor=default;fillColor=default;" parent="1" vertex="1">
          <mxGeometry x="40" y="510" width="40" height="20" as="geometry" />
        </mxCell>
        <mxCell id="lOhiPZA9xh6wjAjMldB4-44" value="" style="line;strokeWidth=0.5;html=1;labelBackgroundColor=default;strokeColor=default;align=center;verticalAlign=top;spacingLeft=0;spacingRight=0;spacingTop=8;spacingBottom=0;fontFamily=Helvetica;fontSize=12;fontColor=default;fillColor=default;" parent="1" vertex="1">
          <mxGeometry x="40" y="570" width="40" height="20" as="geometry" />
        </mxCell>
        <mxCell id="lOhiPZA9xh6wjAjMldB4-45" value="emp_id" style="ellipse;whiteSpace=wrap;html=1;labelBackgroundColor=default;strokeColor=default;strokeWidth=1;align=center;verticalAlign=top;spacingLeft=0;spacingRight=0;spacingTop=8;spacingBottom=0;fontFamily=Helvetica;fontSize=12;fontColor=default;fillColor=default;" parent="1" vertex="1">
          <mxGeometry x="80" y="500" width="60" height="40" as="geometry" />
        </mxCell>
        <mxCell id="lOhiPZA9xh6wjAjMldB4-46" value="first_name" style="ellipse;whiteSpace=wrap;html=1;labelBackgroundColor=default;strokeColor=default;strokeWidth=1;align=center;verticalAlign=top;spacingLeft=0;spacingRight=0;spacingTop=8;spacingBottom=0;fontFamily=Helvetica;fontSize=12;fontColor=default;fillColor=default;" parent="1" vertex="1">
          <mxGeometry x="80" y="560" width="60" height="40" as="geometry" />
        </mxCell>
        <mxCell id="lOhiPZA9xh6wjAjMldB4-48" value="" style="line;strokeWidth=0.5;html=1;labelBackgroundColor=default;strokeColor=default;align=center;verticalAlign=top;spacingLeft=0;spacingRight=0;spacingTop=8;spacingBottom=0;fontFamily=Helvetica;fontSize=12;fontColor=default;fillColor=default;" parent="1" vertex="1">
          <mxGeometry x="40" y="630" width="40" height="20" as="geometry" />
        </mxCell>
        <mxCell id="lOhiPZA9xh6wjAjMldB4-49" value="" style="line;strokeWidth=0.5;html=1;labelBackgroundColor=default;strokeColor=default;align=center;verticalAlign=top;spacingLeft=0;spacingRight=0;spacingTop=8;spacingBottom=0;fontFamily=Helvetica;fontSize=12;fontColor=default;fillColor=default;" parent="1" vertex="1">
          <mxGeometry x="40" y="690" width="40" height="20" as="geometry" />
        </mxCell>
        <mxCell id="lOhiPZA9xh6wjAjMldB4-60" value="title" style="ellipse;whiteSpace=wrap;html=1;labelBackgroundColor=default;strokeColor=default;strokeWidth=1;align=center;verticalAlign=top;spacingLeft=0;spacingRight=0;spacingTop=8;spacingBottom=0;fontFamily=Helvetica;fontSize=12;fontColor=default;fillColor=default;" parent="1" vertex="1">
          <mxGeometry x="80" y="680" width="60" height="40" as="geometry" />
        </mxCell>
        <mxCell id="lOhiPZA9xh6wjAjMldB4-61" value="last_name" style="ellipse;whiteSpace=wrap;html=1;labelBackgroundColor=default;strokeColor=default;strokeWidth=1;align=center;verticalAlign=top;spacingLeft=0;spacingRight=0;spacingTop=8;spacingBottom=0;fontFamily=Helvetica;fontSize=12;fontColor=default;fillColor=default;" parent="1" vertex="1">
          <mxGeometry x="80" y="620" width="60" height="40" as="geometry" />
        </mxCell>
        <mxCell id="5X1RgQWPyd6v_G7OUsLs-2" value="Address" style="rounded=0;whiteSpace=wrap;html=1;" vertex="1" parent="1">
          <mxGeometry x="392.5" y="440" width="80" height="40" as="geometry" />
        </mxCell>
        <mxCell id="5X1RgQWPyd6v_G7OUsLs-3" value="" style="line;strokeWidth=1;direction=south;html=1;spacingLeft=0;spacingBottom=0;spacingRight=0;perimeterSpacing=0;" vertex="1" parent="1">
          <mxGeometry x="387.5" y="480" width="10" height="640" as="geometry" />
        </mxCell>
        <mxCell id="5X1RgQWPyd6v_G7OUsLs-4" value="" style="line;strokeWidth=0.5;html=1;labelBackgroundColor=default;strokeColor=default;align=center;verticalAlign=top;spacingLeft=0;spacingRight=0;spacingTop=8;spacingBottom=0;fontFamily=Helvetica;fontSize=12;fontColor=default;fillColor=default;" vertex="1" parent="1">
          <mxGeometry x="392.5" y="510" width="40" height="20" as="geometry" />
        </mxCell>
        <mxCell id="5X1RgQWPyd6v_G7OUsLs-5" value="" style="line;strokeWidth=0.5;html=1;labelBackgroundColor=default;strokeColor=default;align=center;verticalAlign=top;spacingLeft=0;spacingRight=0;spacingTop=8;spacingBottom=0;fontFamily=Helvetica;fontSize=12;fontColor=default;fillColor=default;" vertex="1" parent="1">
          <mxGeometry x="392.5" y="570" width="40" height="20" as="geometry" />
        </mxCell>
        <mxCell id="5X1RgQWPyd6v_G7OUsLs-6" value="address_id" style="ellipse;whiteSpace=wrap;html=1;labelBackgroundColor=default;strokeColor=default;strokeWidth=1;align=center;verticalAlign=top;spacingLeft=0;spacingRight=0;spacingTop=8;spacingBottom=0;fontFamily=Helvetica;fontSize=12;fontColor=default;fillColor=default;" vertex="1" parent="1">
          <mxGeometry x="432.5" y="500" width="60" height="40" as="geometry" />
        </mxCell>
        <mxCell id="5X1RgQWPyd6v_G7OUsLs-7" value="street" style="ellipse;whiteSpace=wrap;html=1;labelBackgroundColor=default;strokeColor=default;strokeWidth=1;align=center;verticalAlign=top;spacingLeft=0;spacingRight=0;spacingTop=8;spacingBottom=0;fontFamily=Helvetica;fontSize=12;fontColor=default;fillColor=default;" vertex="1" parent="1">
          <mxGeometry x="432.5" y="560" width="60" height="40" as="geometry" />
        </mxCell>
        <mxCell id="5X1RgQWPyd6v_G7OUsLs-8" value="" style="line;strokeWidth=0.5;html=1;labelBackgroundColor=default;strokeColor=default;align=center;verticalAlign=top;spacingLeft=0;spacingRight=0;spacingTop=8;spacingBottom=0;fontFamily=Helvetica;fontSize=12;fontColor=default;fillColor=default;" vertex="1" parent="1">
          <mxGeometry x="392.5" y="630" width="40" height="20" as="geometry" />
        </mxCell>
        <mxCell id="5X1RgQWPyd6v_G7OUsLs-9" value="" style="line;strokeWidth=0.5;html=1;labelBackgroundColor=default;strokeColor=default;align=center;verticalAlign=top;spacingLeft=0;spacingRight=0;spacingTop=8;spacingBottom=0;fontFamily=Helvetica;fontSize=12;fontColor=default;fillColor=default;" vertex="1" parent="1">
          <mxGeometry x="392.5" y="690" width="40" height="20" as="geometry" />
        </mxCell>
        <mxCell id="5X1RgQWPyd6v_G7OUsLs-10" value="" style="line;strokeWidth=0.5;html=1;labelBackgroundColor=default;strokeColor=default;align=center;verticalAlign=top;spacingLeft=0;spacingRight=0;spacingTop=8;spacingBottom=0;fontFamily=Helvetica;fontSize=12;fontColor=default;fillColor=default;" vertex="1" parent="1">
          <mxGeometry x="392.5" y="750" width="40" height="20" as="geometry" />
        </mxCell>
        <mxCell id="5X1RgQWPyd6v_G7OUsLs-11" value="" style="line;strokeWidth=0.5;html=1;labelBackgroundColor=default;strokeColor=default;align=center;verticalAlign=top;spacingLeft=0;spacingRight=0;spacingTop=8;spacingBottom=0;fontFamily=Helvetica;fontSize=12;fontColor=default;fillColor=default;" vertex="1" parent="1">
          <mxGeometry x="392.5" y="810" width="40" height="20" as="geometry" />
        </mxCell>
        <mxCell id="5X1RgQWPyd6v_G7OUsLs-12" value="" style="line;strokeWidth=0.5;html=1;labelBackgroundColor=default;strokeColor=default;align=center;verticalAlign=top;spacingLeft=0;spacingRight=0;spacingTop=8;spacingBottom=0;fontFamily=Helvetica;fontSize=12;fontColor=default;fillColor=default;" vertex="1" parent="1">
          <mxGeometry x="392.5" y="870" width="40" height="20" as="geometry" />
        </mxCell>
        <mxCell id="5X1RgQWPyd6v_G7OUsLs-13" value="" style="line;strokeWidth=0.5;html=1;labelBackgroundColor=default;strokeColor=default;align=center;verticalAlign=top;spacingLeft=0;spacingRight=0;spacingTop=8;spacingBottom=0;fontFamily=Helvetica;fontSize=12;fontColor=default;fillColor=default;" vertex="1" parent="1">
          <mxGeometry x="392.5" y="930" width="40" height="20" as="geometry" />
        </mxCell>
        <mxCell id="5X1RgQWPyd6v_G7OUsLs-14" value="" style="line;strokeWidth=0.5;html=1;labelBackgroundColor=default;strokeColor=default;align=center;verticalAlign=top;spacingLeft=0;spacingRight=0;spacingTop=8;spacingBottom=0;fontFamily=Helvetica;fontSize=12;fontColor=default;fillColor=default;" vertex="1" parent="1">
          <mxGeometry x="392.5" y="990" width="40" height="20" as="geometry" />
        </mxCell>
        <mxCell id="5X1RgQWPyd6v_G7OUsLs-15" value="phone_Nr" style="ellipse;whiteSpace=wrap;html=1;labelBackgroundColor=default;strokeColor=default;strokeWidth=1;align=center;verticalAlign=top;spacingLeft=0;spacingRight=0;spacingTop=8;spacingBottom=0;fontFamily=Helvetica;fontSize=12;fontColor=default;fillColor=default;" vertex="1" parent="1">
          <mxGeometry x="432.5" y="920" width="60" height="40" as="geometry" />
        </mxCell>
        <mxCell id="5X1RgQWPyd6v_G7OUsLs-16" value="country" style="ellipse;whiteSpace=wrap;html=1;labelBackgroundColor=default;strokeColor=default;strokeWidth=1;align=center;verticalAlign=top;spacingLeft=0;spacingRight=0;spacingTop=8;spacingBottom=0;fontFamily=Helvetica;fontSize=12;fontColor=default;fillColor=default;" vertex="1" parent="1">
          <mxGeometry x="432.5" y="860" width="60" height="40" as="geometry" />
        </mxCell>
        <mxCell id="5X1RgQWPyd6v_G7OUsLs-17" value="state" style="ellipse;whiteSpace=wrap;html=1;labelBackgroundColor=default;strokeColor=default;strokeWidth=1;align=center;verticalAlign=top;spacingLeft=0;spacingRight=0;spacingTop=8;spacingBottom=0;fontFamily=Helvetica;fontSize=12;fontColor=default;fillColor=default;" vertex="1" parent="1">
          <mxGeometry x="432.5" y="800" width="60" height="40" as="geometry" />
        </mxCell>
        <mxCell id="5X1RgQWPyd6v_G7OUsLs-18" value="postal_Nr" style="ellipse;whiteSpace=wrap;html=1;labelBackgroundColor=default;strokeColor=default;strokeWidth=1;align=center;verticalAlign=top;spacingLeft=0;spacingRight=0;spacingTop=8;spacingBottom=0;fontFamily=Helvetica;fontSize=10;fontColor=default;fillColor=default;" vertex="1" parent="1">
          <mxGeometry x="432.5" y="740" width="60" height="40" as="geometry" />
        </mxCell>
        <mxCell id="5X1RgQWPyd6v_G7OUsLs-19" value="city" style="ellipse;whiteSpace=wrap;html=1;labelBackgroundColor=default;strokeColor=default;strokeWidth=1;align=center;verticalAlign=top;spacingLeft=0;spacingRight=0;spacingTop=8;spacingBottom=0;fontFamily=Helvetica;fontSize=12;fontColor=default;fillColor=default;" vertex="1" parent="1">
          <mxGeometry x="432.5" y="680" width="60" height="40" as="geometry" />
        </mxCell>
        <mxCell id="5X1RgQWPyd6v_G7OUsLs-20" value="houseNr." style="ellipse;whiteSpace=wrap;html=1;labelBackgroundColor=default;strokeColor=default;strokeWidth=1;align=center;verticalAlign=top;spacingLeft=0;spacingRight=0;spacingTop=8;spacingBottom=0;fontFamily=Helvetica;fontSize=12;fontColor=default;fillColor=default;" vertex="1" parent="1">
          <mxGeometry x="432.5" y="620" width="60" height="40" as="geometry" />
        </mxCell>
        <mxCell id="5X1RgQWPyd6v_G7OUsLs-21" value="mobile_Nr" style="ellipse;whiteSpace=wrap;html=1;labelBackgroundColor=default;strokeColor=default;strokeWidth=1;align=center;verticalAlign=top;spacingLeft=0;spacingRight=0;spacingTop=8;spacingBottom=0;fontFamily=Helvetica;fontSize=12;fontColor=default;fillColor=default;" vertex="1" parent="1">
          <mxGeometry x="432.5" y="980" width="60" height="40" as="geometry" />
        </mxCell>
        <mxCell id="5X1RgQWPyd6v_G7OUsLs-22" value="&lt;font style=&quot;font-size: 10px;&quot;&gt;public_Email&lt;/font&gt;" style="ellipse;whiteSpace=wrap;html=1;labelBackgroundColor=default;strokeColor=default;strokeWidth=1;align=center;verticalAlign=top;spacingLeft=0;spacingRight=0;spacingTop=8;spacingBottom=0;fontFamily=Helvetica;fontSize=12;fontColor=default;fillColor=default;" vertex="1" parent="1">
          <mxGeometry x="434" y="1040" width="60" height="40" as="geometry" />
        </mxCell>
        <mxCell id="5X1RgQWPyd6v_G7OUsLs-23" value="&lt;font style=&quot;font-size: 9px;&quot;&gt;private_Email&lt;/font&gt;" style="ellipse;whiteSpace=wrap;html=1;labelBackgroundColor=default;strokeColor=default;strokeWidth=1;align=center;verticalAlign=top;spacingLeft=0;spacingRight=0;spacingTop=8;spacingBottom=0;fontFamily=Helvetica;fontSize=12;fontColor=default;fillColor=default;" vertex="1" parent="1">
          <mxGeometry x="292.5" y="1010" width="60" height="40" as="geometry" />
        </mxCell>
        <mxCell id="5X1RgQWPyd6v_G7OUsLs-24" value="emp_id" style="ellipse;whiteSpace=wrap;html=1;labelBackgroundColor=default;strokeColor=default;strokeWidth=1;align=center;verticalAlign=top;spacingLeft=0;spacingRight=0;spacingTop=8;spacingBottom=0;fontFamily=Helvetica;fontSize=12;fontColor=default;fillColor=default;" vertex="1" parent="1">
          <mxGeometry x="434" y="1100" width="60" height="40" as="geometry" />
        </mxCell>
        <mxCell id="5X1RgQWPyd6v_G7OUsLs-25" value="&lt;font style=&quot;font-size: 10px;&quot;&gt;fax_number&lt;/font&gt;" style="ellipse;whiteSpace=wrap;html=1;labelBackgroundColor=default;strokeColor=default;strokeWidth=1;align=center;verticalAlign=top;spacingLeft=0;spacingRight=0;spacingTop=8;spacingBottom=0;fontFamily=Helvetica;fontSize=12;fontColor=default;fillColor=default;" vertex="1" parent="1">
          <mxGeometry x="292.5" y="1070" width="60" height="40" as="geometry" />
        </mxCell>
        <mxCell id="5X1RgQWPyd6v_G7OUsLs-26" value="" style="line;strokeWidth=0.5;html=1;labelBackgroundColor=default;strokeColor=default;align=center;verticalAlign=top;spacingLeft=0;spacingRight=0;spacingTop=8;spacingBottom=0;fontFamily=Helvetica;fontSize=12;fontColor=default;fillColor=default;" vertex="1" parent="1">
          <mxGeometry x="394" y="1050" width="40" height="20" as="geometry" />
        </mxCell>
        <mxCell id="5X1RgQWPyd6v_G7OUsLs-27" value="" style="line;strokeWidth=0.5;html=1;labelBackgroundColor=default;strokeColor=default;align=center;verticalAlign=top;spacingLeft=0;spacingRight=0;spacingTop=8;spacingBottom=0;fontFamily=Helvetica;fontSize=12;fontColor=default;fillColor=default;" vertex="1" parent="1">
          <mxGeometry x="392.5" y="1110" width="40" height="20" as="geometry" />
        </mxCell>
        <mxCell id="5X1RgQWPyd6v_G7OUsLs-28" value="" style="line;strokeWidth=0.5;html=1;labelBackgroundColor=default;strokeColor=default;align=center;verticalAlign=top;spacingLeft=0;spacingRight=0;spacingTop=8;spacingBottom=0;fontFamily=Helvetica;fontSize=12;fontColor=default;fillColor=default;" vertex="1" parent="1">
          <mxGeometry x="352.5" y="1080" width="40" height="20" as="geometry" />
        </mxCell>
        <mxCell id="5X1RgQWPyd6v_G7OUsLs-29" value="" style="line;strokeWidth=0.5;html=1;labelBackgroundColor=default;strokeColor=default;align=center;verticalAlign=top;spacingLeft=0;spacingRight=0;spacingTop=8;spacingBottom=0;fontFamily=Helvetica;fontSize=12;fontColor=default;fillColor=default;" vertex="1" parent="1">
          <mxGeometry x="352.5" y="1020" width="40" height="20" as="geometry" />
        </mxCell>
      </root>
    </mxGraphModel>
  </diagram>
</mxfile>
